#N canvas 0 0 1362 685 10;
#X obj 840 164 inlet;
#X obj 840 191 s squelch;
#X obj 249 377 *~;
#X obj 210 377 *~;
#X obj 568 222 *~;
#X obj 527 222 *~;
#X obj 527 245 +~;
#X obj 209 49 *~;
#X obj 209 24 inlet~;
#X obj 209 72 rfft~;
#X obj 209 426 *~;
#X obj 296 111 *~;
#X obj 527 199 rfft~;
#X obj 209 401 rifft~;
#X obj 209 449 outlet~;
#X obj 262 111 *~;
#X obj 262 134 +~;
#X obj 262 286 *~;
#X obj 35 26 block~ 1024 4;
#X obj 262 264 clip~;
#X obj 242 50 tabreceive~ \$0-hann;
#X obj 34 66 loadbang;
#X obj 303 212 r squelch;
#X obj 302 235 expr 0.01*$f1*$f1;
#X obj 262 160 +~ 1e-020;
#X obj 263 346 *~ 0.00065;
#X obj 242 426 tabreceive~ \$0-hann;
#X obj 528 173 *~;
#X obj 528 148 inlet~;
#X obj 561 174 tabreceive~ \$0-hann;
#X obj 262 187 q8_rsqrt~;
#X obj 527 268 q8_sqrt~;
#X text 270 25 filter input;
#X text 593 148 control source;
#X text 300 288 multiply the two amplitude;
#X obj 35 256 hann \$0;
#X obj 34 209 r window-size;
#X obj 33 231 / 4;
#X msg 34 89 \; pd dsp 1 \; window-size 1024 \; squelch 23 \; squelch-set
set 23;
#X connect 0 0 1 0;
#X connect 2 0 13 1;
#X connect 3 0 13 0;
#X connect 4 0 6 1;
#X connect 5 0 6 0;
#X connect 6 0 31 0;
#X connect 7 0 9 0;
#X connect 8 0 7 0;
#X connect 9 0 15 0;
#X connect 9 0 15 1;
#X connect 9 0 3 0;
#X connect 9 1 11 0;
#X connect 9 1 11 1;
#X connect 9 1 2 0;
#X connect 10 0 14 0;
#X connect 11 0 16 1;
#X connect 12 0 5 0;
#X connect 12 0 5 1;
#X connect 12 1 4 0;
#X connect 12 1 4 1;
#X connect 13 0 10 0;
#X connect 15 0 16 0;
#X connect 16 0 24 0;
#X connect 17 0 25 0;
#X connect 19 0 17 0;
#X connect 20 0 7 1;
#X connect 21 0 38 0;
#X connect 22 0 23 0;
#X connect 23 0 19 2;
#X connect 24 0 30 0;
#X connect 25 0 2 1;
#X connect 25 0 3 1;
#X connect 26 0 10 1;
#X connect 27 0 12 0;
#X connect 28 0 27 0;
#X connect 29 0 27 1;
#X connect 30 0 19 0;
#X connect 31 0 17 1;
#X connect 36 0 37 0;
#X connect 37 0 35 0;
