#N canvas 404 111 680 373 10;
#X text 43 13 patch to build the hanning window;
#X text 43 30 argument: \$1 -> \$0 of the parent patch;
#X text 104 45 first inlet: window size;
#X msg 172 123 0;
#X obj 66 230 osc~;
#X obj 66 124 samplerate~;
#X obj 66 253 *~ -0.5;
#X obj 66 276 +~ 0.5;
#X obj 99 166 inlet;
#X obj 58 301 tabwrite~ \$1-hann;
#X floatatom 150 213 5 0 0 0 - - -;
#X floatatom 191 180 5 0 0 0 - - -;
#X obj 54 65 loadbang;
#N canvas 0 0 450 300 (subpatch) 0;
#X array \$1-hann 1024 float 2;
#X coords 0 1 1024 0 200 140 1 0 0;
#X restore 320 140 graph;
#X obj 66 206 / 1024;
#X obj 29 183 bng 15 250 50 0 empty empty empty 17 7 0 10 -262144 -1
-1;
#X connect 3 0 4 1;
#X connect 4 0 6 0;
#X connect 5 0 11 0;
#X connect 5 0 14 0;
#X connect 6 0 7 0;
#X connect 7 0 9 0;
#X connect 8 0 10 0;
#X connect 8 0 14 1;
#X connect 8 0 15 0;
#X connect 12 0 9 0;
#X connect 12 0 5 0;
#X connect 12 0 3 0;
#X connect 14 0 4 0;
#X connect 15 0 12 0;
