#N canvas 0 50 1280 757 10;
#X obj 50 144 convolution;
#X floatatom 199 88 5 0 0 2 Squelch squelch-set -, f 5;
#X obj 28 243 output~;
#X text 544 294 60*44100Hz. One minute of samples;
#X msg 390 292 start;
#X msg 467 290 stop;
#X obj 396 463 soundfiler;
#X obj 65 84 adc~;
#X obj 365 137 sampler;
#X obj 518 214 *~;
#X obj 364 212 *~;
#X obj 277 28 vsl 15 128 0 0.5 0 0 empty empty Vol 0 -9 0 10 -262144
-1 -1 0 1;
#X text 44 67 O1 GT O2 Voice;
#X obj 357 413 bng 15 250 50 0 empty empty empty 17 7 0 10 -262144
-1 -1;
#X obj 339 381 tabwrite~ recordL;
#X obj 479 381 tabwrite~ recordR;
#X obj 551 320 table recordL 2.646e+006;
#X obj 550 340 table recordR 2.646e+006;
#X msg 394 431 write -wave guit.wav recordL recordR;
#X obj 732 462 soundfiler;
#X obj 693 412 bng 15 250 50 0 empty empty empty 17 7 0 10 -262144
-1 -1;
#X obj 675 380 tabwrite~ record2L;
#X obj 815 380 tabwrite~ record2R;
#X obj 730 322 table record2L 2.646e+006;
#X obj 730 342 table record2R 2.646e+006;
#X msg 730 430 write -wave guit2.wav record2L record2R;
#X connect 0 0 2 0;
#X connect 0 0 2 1;
#X connect 0 0 14 0;
#X connect 0 0 15 0;
#X connect 1 0 0 2;
#X connect 4 0 14 0;
#X connect 4 0 15 0;
#X connect 4 0 21 0;
#X connect 4 0 22 0;
#X connect 5 0 13 0;
#X connect 5 0 14 0;
#X connect 5 0 15 0;
#X connect 5 0 21 0;
#X connect 5 0 22 0;
#X connect 5 0 20 0;
#X connect 7 0 21 0;
#X connect 7 0 0 0;
#X connect 7 1 22 0;
#X connect 7 1 0 1;
#X connect 7 1 8 0;
#X connect 8 0 10 0;
#X connect 8 1 9 0;
#X connect 9 0 2 1;
#X connect 9 0 15 0;
#X connect 10 0 2 0;
#X connect 10 0 14 0;
#X connect 11 0 9 1;
#X connect 11 0 10 1;
#X connect 13 0 18 0;
#X connect 18 0 6 0;
#X connect 20 0 25 0;
#X connect 25 0 19 0;
#X coords 0 757 1 756 85 60 0;
