#N canvas 64 50 1024 683 10;
#X obj 18 171 openpanel;
#X obj 18 219 soundfiler;
#X obj 15 15 bng 15 250 50 0 empty empty empty 17 7 0 10 -262144 -1
-1;
#X obj 183 171 openpanel;
#X obj 183 219 soundfiler;
#X obj 41 15 bng 15 250 50 0 empty empty empty 17 7 0 10 -262144 -1
-1;
#X obj 346 171 openpanel;
#X obj 346 219 soundfiler;
#X obj 67 15 bng 15 250 50 0 empty empty empty 17 7 0 10 -262144 -1
-1;
#X obj 19 288 openpanel;
#X obj 19 336 soundfiler;
#X obj 92 16 bng 15 250 50 0 empty empty empty 17 7 0 10 -262144 -1
-1;
#X obj 184 288 openpanel;
#X obj 184 336 soundfiler;
#X obj 19 36 bng 15 250 50 0 empty empty empty 17 7 0 10 -262144 -1
-1;
#X obj 347 288 openpanel;
#X obj 347 336 soundfiler;
#X obj 43 36 bng 15 250 50 0 empty empty empty 17 7 0 10 -262144 -1
-1;
#X obj 653 240 tabplay~ file-\$1;
#X obj 651 297 outlet~;
#X obj 724 145 random 2;
#X obj 638 124 bng 15 250 50 0 empty empty empty 17 7 0 10 -262144
-1 -1;
#X obj 775 237 tabplay~ file-\$1;
#X obj 774 300 outlet~;
#X obj 598 222 bng 15 250 50 0 empty empty empty 17 7 0 10 -262144
-1 -1;
#X obj 615 178 spigot;
#X obj 751 205 spigot;
#X obj 770 177 - 1;
#X obj 705 201 bng 15 250 50 0 empty empty empty 17 7 0 10 -262144
-1 -1;
#X msg 617 208 set file-\$1;
#X msg 837 208 set file-\$1;
#X obj 947 204 tabplay~ file-\$1;
#X obj 1020 104 random 2;
#X obj 934 83 bng 15 250 50 0 empty empty empty 17 7 0 10 -262144 -1
-1;
#X obj 1071 196 tabplay~ file-\$1;
#X obj 894 181 bng 15 250 50 0 empty empty empty 17 7 0 10 -262144
-1 -1;
#X obj 911 137 spigot;
#X obj 1047 164 spigot;
#X obj 1066 136 - 1;
#X obj 1001 160 bng 15 250 50 0 empty empty empty 17 7 0 10 -262144
-1 -1;
#X msg 913 167 set file-\$1;
#X msg 1133 167 set file-\$1;
#X obj 648 63 temporand;
#X obj 70 37 bng 15 250 50 0 empty empty empty 17 7 0 10 -262144 -1
-1;
#X obj 94 37 bng 15 250 50 0 empty empty empty 17 7 0 10 -262144 -1
-1;
#X obj 27 381 openpanel;
#X obj 27 429 soundfiler;
#X obj 190 381 openpanel;
#X obj 190 429 soundfiler;
#X msg 18 195 read -resize \$1 file-0;
#X obj 96 219 table file-0;
#X msg 183 195 read -resize \$1 file-1;
#X obj 255 220 table file-1;
#X msg 346 195 read -resize \$1 file-2;
#X obj 418 220 table file-2;
#X msg 19 312 read -resize \$1 file-3;
#X obj 91 337 table file-3;
#X msg 184 312 read -resize \$1 file-4;
#X obj 256 337 table file-4;
#X msg 347 312 read -resize \$1 file-5;
#X obj 419 337 table file-5;
#X msg 27 405 read -resize \$1 file-6;
#X obj 99 430 table file-6;
#X msg 190 405 read -resize \$1 file-7;
#X obj 262 430 table file-7;
#X obj 592 453 tabplay~ file-0;
#X obj 865 469 bark~ 2048 128 0.5;
#X obj 876 429 r bark;
#X obj 862 607 sel 1 2;
#X floatatom 868 689 5 0 0 0 - - -, f 5;
#X msg 861 657 1;
#X msg 894 657 0;
#X obj 894 634 t b b;
#X msg 914 606 0;
#X obj 865 581 +;
#X floatatom 893 583 5 0 0 0 - - -, f 5;
#X obj 868 741 timer;
#X obj 865 529 bng 15 250 50 0 empty empty empty 0 -6 0 10 -4034 -1
-1;
#X msg 863 553 1;
#X obj 868 714 sel 1 0;
#X floatatom 1035 748 9 0 0 0 - - -, f 9;
#X text 887 527 <-- click twice to determine the tempo;
#X obj 1040 462 s bark;
#X msg 1101 394 mask 4 0.75;
#X obj 865 389 inlet~;
#X obj 868 767 s tempo;
#X text 121 138 Load sample battery;
#X text 854 355 Tempo detector;
#X text 700 28 Random subtempo and sample playing;
#X obj 588 492 tabplay~ file-1;
#X obj 527 388 r tempo;
#X obj 445 598 metro;
#X msg 1102 445 filter_range 30 36;
#X obj 558 605 tgl 15 0 empty empty empty 17 7 0 10 -262144 -1 -1 0
1;
#X obj 520 645 spigot;
#X obj 639 693 bng 15 250 50 0 empty empty empty 17 7 0 10 -262144
-1 -1;
#X obj 740 63 temporand;
#X msg 1099 371 thresh 7 17;
#X obj 998 316 loadbang;
#X obj 458 695 spigot;
#X obj 563 710 tgl 15 0 empty empty empty 17 7 0 10 -262144 -1 -1 1
1;
#X obj 593 524 tabplay~ file-2;
#X obj 653 272 *~;
#X obj 1086 239 osc~ 0.5;
#X obj 1087 261 +~ 1.2;
#X obj 774 269 *~;
#X obj 1086 286 *~ 0.4;
#X msg 1102 420 debounce 200;
#X connect 0 0 49 0;
#X connect 2 0 0 0;
#X connect 3 0 51 0;
#X connect 5 0 3 0;
#X connect 6 0 53 0;
#X connect 8 0 6 0;
#X connect 9 0 55 0;
#X connect 11 0 9 0;
#X connect 12 0 57 0;
#X connect 14 0 12 0;
#X connect 15 0 59 0;
#X connect 17 0 15 0;
#X connect 18 0 102 0;
#X connect 20 0 25 1;
#X connect 20 0 27 0;
#X connect 21 0 20 0;
#X connect 22 0 105 0;
#X connect 24 0 18 0;
#X connect 25 0 24 0;
#X connect 25 0 29 0;
#X connect 26 0 28 0;
#X connect 26 0 30 0;
#X connect 27 0 26 1;
#X connect 28 0 22 0;
#X connect 29 0 18 0;
#X connect 30 0 22 0;
#X connect 31 0 102 0;
#X connect 32 0 36 1;
#X connect 32 0 38 0;
#X connect 33 0 32 0;
#X connect 34 0 105 0;
#X connect 35 0 31 0;
#X connect 36 0 35 0;
#X connect 36 0 40 0;
#X connect 37 0 39 0;
#X connect 37 0 41 0;
#X connect 38 0 37 1;
#X connect 39 0 34 0;
#X connect 40 0 31 0;
#X connect 41 0 34 0;
#X connect 42 0 21 0;
#X connect 42 0 26 0;
#X connect 42 0 25 0;
#X connect 43 0 45 0;
#X connect 44 0 47 0;
#X connect 45 0 61 0;
#X connect 47 0 63 0;
#X connect 49 0 1 0;
#X connect 51 0 4 0;
#X connect 53 0 7 0;
#X connect 55 0 10 0;
#X connect 57 0 13 0;
#X connect 59 0 16 0;
#X connect 61 0 46 0;
#X connect 63 0 48 0;
#X connect 65 0 19 0;
#X connect 65 0 23 0;
#X connect 66 0 78 0;
#X connect 67 0 66 0;
#X connect 68 0 70 0;
#X connect 68 1 72 0;
#X connect 69 0 79 0;
#X connect 70 0 69 0;
#X connect 71 0 69 0;
#X connect 72 0 71 0;
#X connect 72 1 73 0;
#X connect 73 0 75 0;
#X connect 74 0 75 0;
#X connect 75 0 74 1;
#X connect 75 0 68 0;
#X connect 76 0 80 0;
#X connect 76 0 85 0;
#X connect 76 0 95 0;
#X connect 77 0 78 0;
#X connect 78 0 74 0;
#X connect 79 0 76 0;
#X connect 79 1 76 1;
#X connect 83 0 82 0;
#X connect 84 0 66 0;
#X connect 89 0 23 0;
#X connect 89 0 19 0;
#X connect 90 0 91 1;
#X connect 91 0 89 0;
#X connect 91 0 94 0;
#X connect 91 0 93 0;
#X connect 92 0 82 0;
#X connect 93 0 94 1;
#X connect 94 0 65 0;
#X connect 94 0 99 0;
#X connect 94 0 100 0;
#X connect 95 0 91 0;
#X connect 96 0 33 0;
#X connect 96 0 36 0;
#X connect 96 0 37 0;
#X connect 97 0 82 0;
#X connect 98 0 97 0;
#X connect 98 0 83 0;
#X connect 98 0 107 0;
#X connect 98 0 92 0;
#X connect 99 0 101 0;
#X connect 100 0 99 1;
#X connect 101 0 19 0;
#X connect 101 0 23 0;
#X connect 102 0 19 0;
#X connect 103 0 104 0;
#X connect 104 0 106 0;
#X connect 105 0 23 0;
#X connect 106 0 102 1;
#X connect 106 0 105 1;
#X connect 107 0 82 0;
#X coords 0 -1 1 1 160 60 1 0 0;
