#N canvas 1272 24 1024 725 10;
#X obj 49 259 bark~ 2048 128 0.5;
#X obj 60 219 r bark;
#X obj 46 397 sel 1 2;
#X floatatom 52 479 5 0 0 0 - - -, f 5;
#X msg 45 447 1;
#X msg 78 447 0;
#X obj 78 424 t b b;
#X msg 98 396 0;
#X obj 49 371 +;
#X floatatom 77 373 5 0 0 0 - - -, f 5;
#X obj 52 531 timer;
#X obj 49 319 bng 15 250 50 0 empty empty empty 0 -6 0 10 -4034 -1
-1;
#X msg 47 343 1;
#X obj 52 504 sel 1 0;
#X floatatom 219 538 9 0 0 0 - - -, f 9;
#X obj 229 414 bng 25 250 50 0 empty empty empty 0 -6 0 10 -262144
-1 -1;
#X msg 208 351 1;
#X obj 245 351 loadbang;
#X obj 208 378 metro 500;
#X text 71 317 <-- click twice to determine the tempo;
#X text 258 538 time passed between two clicks (in ms.);
#X text 261 417 Tempo;
#X obj 432 182 s bark;
#X msg 452 51 mask 4 0.75;
#X msg 727 161 debounce 100;
#X msg 747 201 filter_range 0 20;
#X obj 140 606 outlet;
#X obj 49 108 inlet~;
#X msg 432 11 thresh 15 9;
#X obj 778 421 aubiotempo~;
#X connect 0 0 12 0;
#X connect 1 0 0 0;
#X connect 2 0 4 0;
#X connect 2 1 6 0;
#X connect 3 0 13 0;
#X connect 4 0 3 0;
#X connect 5 0 3 0;
#X connect 6 0 5 0;
#X connect 6 1 7 0;
#X connect 7 0 9 0;
#X connect 8 0 9 0;
#X connect 9 0 8 1;
#X connect 9 0 2 0;
#X connect 10 0 14 0;
#X connect 10 0 26 0;
#X connect 11 0 12 0;
#X connect 12 0 8 0;
#X connect 13 0 10 0;
#X connect 13 1 10 1;
#X connect 14 0 18 1;
#X connect 16 0 18 0;
#X connect 17 0 16 0;
#X connect 18 0 15 0;
#X connect 23 0 22 0;
#X connect 24 0 22 0;
#X connect 25 0 22 0;
#X connect 27 0 0 0;
#X connect 28 0 22 0;
