#N canvas -9 -9 1920 976 10;
#X obj 529 295 sel 1 2;
#X floatatom 535 377 5 0 0 0 - - -;
#X msg 528 345 1;
#X msg 561 345 0;
#X obj 561 322 t b b;
#X msg 581 294 0;
#X obj 532 269 +;
#X floatatom 560 271 5 0 0 0 - - -;
#X obj 535 429 timer;
#X obj 532 217 bng 15 250 50 0 empty empty empty 0 -6 0 10 -4034 -1
-1;
#X msg 530 241 1;
#X obj 535 402 sel 1 0;
#X floatatom 535 453 5 0 0 0 - - -;
#X obj 712 312 bng 25 250 50 0 empty empty empty 0 -6 0 10 -262144
-1 -1;
#X msg 691 249 1;
#X obj 728 249 loadbang;
#X obj 691 276 metro 500;
#X text 554 215 <-- click twice to determine the tempo;
#X text 574 453 time passed between two clicks (in ms.);
#X text 744 315 Tempo;
#X connect 0 0 2 0;
#X connect 0 1 4 0;
#X connect 1 0 11 0;
#X connect 2 0 1 0;
#X connect 3 0 1 0;
#X connect 4 0 3 0;
#X connect 4 1 5 0;
#X connect 5 0 7 0;
#X connect 6 0 7 0;
#X connect 7 0 6 1;
#X connect 7 0 0 0;
#X connect 8 0 12 0;
#X connect 9 0 10 0;
#X connect 10 0 6 0;
#X connect 11 0 8 0;
#X connect 11 1 8 1;
#X connect 12 0 16 1;
#X connect 14 0 16 0;
#X connect 15 0 14 0;
#X connect 16 0 13 0;
