#N canvas 136 50 510 716 10;
#X obj 136 157 r \$0-tempo_loop;
#X obj 128 251 hradio 15 1 0 9 empty empty empty 0 -8 0 10 -262144
-1 -1 7;
#X msg 40 163 stop;
#X obj 128 306 expr pow(2 \, $f1);
#X floatatom 128 334 5 0 0 0 - - -, f 5;
#X obj 132 360 *;
#X obj 328 253 t b f;
#X floatatom 128 387 5 0 0 0 - - -, f 5;
#X obj 96 412 delay;
#X obj 43 440 s \$0-tempo_loop;
#X text 327 183 tempo;
#X obj 412 344 outlet;
#X obj 128 213 random 8;
#X obj 128 280 mod 4;
#X obj 328 201 r tempo;
#X connect 0 0 12 0;
#X connect 1 0 11 0;
#X connect 1 0 13 0;
#X connect 2 0 8 0;
#X connect 3 0 4 0;
#X connect 4 0 5 0;
#X connect 5 0 7 0;
#X connect 6 0 5 0;
#X connect 6 1 5 1;
#X connect 7 0 8 0;
#X connect 8 0 9 0;
#X connect 12 0 1 0;
#X connect 13 0 3 0;
#X connect 14 0 6 0;
